# xmcd CD database file
#
# Track frame offsets:
#	150
#	12735
#	23217
#	43150
#	65180
#	83005
#	108892
#	122450
#	144380
#	157762
#	174977
#	199130
#	217632
#	231642
#
# Disc length: 3232 seconds
#
# Revision: 0
# Processed by: cddbd v1.4PL0 Copyright (c) Steve Scherf et al.
# Submitted via: CDex 1.50beta9
#
DISCID=b80c9e0e
DTITLE=Ella Trafova and David Goloshokin quartet - I Remember...
DYEAR=1998
DGENRE=Jazz
TTITLE0='S Wonderful
TTITLE1=Nice Work if You Can Get It
TTITLE2=Solitude
TTITLE3=Day Dream
TTITLE4=Lullaby of Birdland
TTITLE5=I Remember Clifford
TTITLE6=Sunday
TTITLE7=Body and Soul
TTITLE8=Just in Time
TTITLE9=Shiny Stockings
TTITLE10=Misty
TTITLE11=Something
TTITLE12=Honeysuckle Rose
TTITLE13=All of Me
EXTD=YEAR: 1998
EXTT0=
EXTT1=
EXTT2=
EXTT3=
EXTT4=
EXTT5=
EXTT6=
EXTT7=
EXTT8=
EXTT9=
EXTT10=
EXTT11=
EXTT12=
EXTT13=
PLAYORDER=
